<?xml version="1.0" encoding="UTF-8"?>
<svg id="a" xmlns="http://www.w3.org/2000/svg" viewBox="0 0 50 50">
  <defs>
    <style>
      .b {
        stroke-linecap: round;
      }
      .b,.c,.d {
        fill: none;
        stroke: #ffffff;
      }
      .b,.d {
        stroke-linejoin: round;
      }
      .c {
        stroke-miterlimit: 10;
      }
    </style>
  </defs>
  <path class="d" d="M36.9,35.8v11.6c0,1.1-.9,2-2,2h0c-1.1,0-2-.9-2-2h0c0,1.1-.9,2-2,2h0c-1.1,0-2-.9-2-2v-11.6"/>
  <circle class="c" cx="17" cy="6" r="5.2"/>
  <circle class="c" cx="33" cy="6" r="5.2"/>
  <path class="d" d="M38.2,22l2.4,7.3c.3,.9,1.3,1.4,2.2,1.1h0c.9-.4,1.7-1.3,1.2-2.2l-5.6-13.2c-.3-.6-.8-.9-1.5-.9h-8.7c-.7,0-1.3,.4-1.5,1l-4.9,12.9c-.3,.8,.1,1.8,.9,2.2h0c.9,.4,2,0,2.4-1l2.7-7.3-5.2,13.8h20.1l-4.5-13.7h0Z"/>
  <path class="b" d="M22,29.7v17.4c0,1.4-1.1,2.5-2.5,2.5h0c-1.4,0-2.5-1.1-2.5-2.5h0c0,1.4-1.1,2.5-2.5,2.5h0c-1.4,0-2.5-1.1-2.5-2.5V20.2h0v8.8c0,1.1-.9,2-2,2h0c-1.1,0-2-.9-2-2V15.6c0-.8,.7-1.5,1.5-1.5h15.1c.2,0,.5,.1,.7,.2"/>
  <path class="b" d="M22,27.4v-7.2"/>
  <line class="d" x1="32.9" y1="35.8" x2="32.9" y2="47.5"/>
  <line class="b" x1="17" y1="47.1" x2="17" y2="32.91"/>
</svg>
