<?xml version="1.0" encoding="UTF-8"?>
<svg id="a" xmlns="http://www.w3.org/2000/svg" viewBox="0 0 50 50">
<defs>
<style>
.b,.c,.d {
  fill: none;
  stroke: #fff;
}
.b,.d {
  stroke-miterlimit: 10;
}
.c {
  stroke-linejoin: round;
}
.c,.d {
  stroke-linecap: round;
}
</style>
</defs>
<circle class="b" cx="14.04" cy="6.88" r="4.22"/>
<circle class="b" cx="25" cy="20.05" r="3.07"/>
<circle class="b" cx="34.87" cy="6.88" r="4.22"/>
<path class="b" d="M19.07,28.77v8.4c0,.45,.37,.82,.82,.82h2.03v8.04c0,.6,.49,1.09,1.09,1.09h3.97c.6,0,1.09-.49,1.09-1.09v-8.04h1.97c.45,0,.82-.37,.82-.82v-8.4c0-1.59-1.29-2.89-2.89-2.89h-6.02c-1.59,0-2.89,1.29-2.89,2.89h.01Z"/>
<path class="c" d="M21.14,16c-.16-1.24-1.22-2.21-2.5-2.21H8.83c-2.13,0-3.87,1.73-3.87,3.87h0v13.44c0,1.12,.91,2.02,2.02,2.02h0c1.12,0,2.02-.91,2.02-2.02v13.51c0,1.39,1.13,2.51,2.51,2.51h0c1.39,0,2.51-1.13,2.51-2.51h0c0,1.39,1.13,2.51,2.51,2.51h0c1.39,0,2.51-1.13,2.51-2.51v-15.83"/>
<path class="b" d="M30.87,36.09h4v8.9c0,1.1-.9,2-2,2h0c-1.1,0-2-.9-2-2v-8.9h0Z"/>
<path class="b" d="M34.87,36.09h4v8.9c0,1.1-.9,2-2,2h0c-1.1,0-2-.9-2-2v-8.9h0Z"/>
<path class="d" d="M29.32,16.01c0-1.22,.99-2.21,2.21-2.21h6.66c1.23,0,2.33,.75,2.78,1.9l4.89,12.48c.42,1.08-.14,2.29-1.23,2.67h0c-1.04,.36-2.18-.17-2.57-1.2l-2.97-7.8,4.8,12.63c.3,.78-.28,1.62-1.11,1.62h-11.91"/>
<line class="c" x1="14.02" y1="44.61" x2="14.02" y2="31.56"/>
</svg>
