<?xml version="1.0" encoding="UTF-8"?>
<svg id="uuid-a0e3e2ab-2cea-498a-a3b6-34390c1336ea" xmlns="http://www.w3.org/2000/svg" viewBox="0 0 50 50">
<defs>
<style>
.uuid-92b86fc9-b8ef-47ab-a0be-66845a7e3763 {
  fill:#fff;
}
.uuid-705c6a8f-bea1-4916-8a46-d8b782cb82eb {
  fill:none;
  stroke:#fff;
  stroke-miterlimit:10;
}
</style></defs><rect class="uuid-92b86fc9-b8ef-47ab-a0be-66845a7e3763" x="4" y="36" width="2" height="2"/><rect class="uuid-92b86fc9-b8ef-47ab-a0be-66845a7e3763" x="4" y="32" width="42" height="2"/><rect class="uuid-92b86fc9-b8ef-47ab-a0be-66845a7e3763" x="12" y="36" width="2" height="2"/><rect class="uuid-92b86fc9-b8ef-47ab-a0be-66845a7e3763" x="20" y="36" width="2" height="2"/><rect class="uuid-92b86fc9-b8ef-47ab-a0be-66845a7e3763" x="28" y="36" width="2" height="2"/><rect class="uuid-92b86fc9-b8ef-47ab-a0be-66845a7e3763" x="36" y="36" width="2" height="2"/><rect class="uuid-92b86fc9-b8ef-47ab-a0be-66845a7e3763" x="4" y="44" width="2" height="2"/><rect class="uuid-92b86fc9-b8ef-47ab-a0be-66845a7e3763" x="12" y="44" width="2" height="2"/><rect class="uuid-92b86fc9-b8ef-47ab-a0be-66845a7e3763" x="20" y="44" width="2" height="2"/><rect class="uuid-92b86fc9-b8ef-47ab-a0be-66845a7e3763" x="28" y="44" width="2" height="2"/><rect class="uuid-92b86fc9-b8ef-47ab-a0be-66845a7e3763" x="36" y="44" width="2" height="2"/><rect class="uuid-92b86fc9-b8ef-47ab-a0be-66845a7e3763" x="44" y="36" width="2" height="2"/><rect class="uuid-92b86fc9-b8ef-47ab-a0be-66845a7e3763" x="44" y="44" width="2" height="2"/><rect class="uuid-92b86fc9-b8ef-47ab-a0be-66845a7e3763" x="8" y="40" width="2" height="2"/><rect class="uuid-92b86fc9-b8ef-47ab-a0be-66845a7e3763" x="16" y="40" width="2" height="2"/><rect class="uuid-92b86fc9-b8ef-47ab-a0be-66845a7e3763" x="24" y="40" width="2" height="2"/><rect class="uuid-92b86fc9-b8ef-47ab-a0be-66845a7e3763" x="32" y="40" width="2" height="2"/><rect class="uuid-92b86fc9-b8ef-47ab-a0be-66845a7e3763" x="40" y="40" width="2" height="2"/><path class="uuid-705c6a8f-bea1-4916-8a46-d8b782cb82eb" d="M6.4,21.9c-1,.5-.9,2.2-.9,2.6,0,.3,.1,2.2,1.7,3.2,.1,.1,1.5,.9,2.4,.3,.7-.5,.7-1.4,.7-2,0-.2,0-2.2-1.5-3.4-.4-.2-1.5-1.1-2.4-.7Z"/><path class="uuid-705c6a8f-bea1-4916-8a46-d8b782cb82eb" d="M15,14.4c-1.1,.7-1.1,2.4-1,3,0,.1,.2,3.2,2.5,4.3,.3,.1,1.9,.9,3.2,0,1.3-.9,1.1-2.8,1.1-3.2-.2-2.4-2.4-3.6-2.6-3.7-.4-.3-2-1.2-3.2-.4Z"/><path class="uuid-705c6a8f-bea1-4916-8a46-d8b782cb82eb" d="M22.7,4.6c-1.5,1.2-.3,4.7-.1,5.4,.4,1.1,.9,2.6,2.4,3.6,1.6,1.1,4.4,1.8,5.9,.4,1.6-1.6,.5-4.6-.3-6-1.1-1.9-2.9-2.6-3.8-2.9-1.3-.6-3-1.3-4.1-.5Z"/><path class="uuid-705c6a8f-bea1-4916-8a46-d8b782cb82eb" d="M36.7,8.5c-.9,1.5-1,4.2,.6,5.3,1.7,1.1,4,0,5.2-1.3,.9-1.1,1-2.4,1.1-3.1,.1-1,.2-2.2-.6-2.9-1-1-2.9-.3-3.6-.1-.5,.3-1.9,.7-2.7,2.1Z"/><path class="uuid-705c6a8f-bea1-4916-8a46-d8b782cb82eb" d="M23.3,23.3c-.1,.2-.6,1.7,.3,2.6,.7,.8,2,.5,2.2,.5,1.6-.3,2.4-2,2.5-2.3,.1-.2,1-2.3,.1-3.2-.8-.7-2.3,0-2.9,.2-.5,.3-1.8,.9-2.2,2.2Z"/><path class="uuid-705c6a8f-bea1-4916-8a46-d8b782cb82eb" d="M39.1,22.8c.5-1.5,2-2.1,2.7-2.4,.6-.3,2.4-1,3.1-.2,.8,.9-.7,3.1-.7,3.3-.4,.6-1.1,1.7-2.5,2-.2,0-1.7,.4-2.5-.6-.6-.7-.2-1.8-.1-2.1Z"/><path class="uuid-705c6a8f-bea1-4916-8a46-d8b782cb82eb" d="M9.2,28.1c.1,.6,.3,1.3,.3,2.1,.1,1,0,2,0,2.7"/><path class="uuid-705c6a8f-bea1-4916-8a46-d8b782cb82eb" d="M19.2,22c.2,1.5,.4,3.1,.5,4.8,.1,2.3,.1,4.4,0,6.3"/><path class="uuid-705c6a8f-bea1-4916-8a46-d8b782cb82eb" d="M20.2,32.3c-.1-.4-.5-3.3,1.5-5.2,.6-.6,1.3-1,1.9-1.2"/><path class="uuid-705c6a8f-bea1-4916-8a46-d8b782cb82eb" d="M34.9,32.7c-.1-.7-.2-3,1.3-5.2,1-1.5,2.4-2.3,3.1-2.6"/><path class="uuid-705c6a8f-bea1-4916-8a46-d8b782cb82eb" d="M34.4,32.8c.7-3,1.5-8.8-1.1-14.9-.7-1.6-1.5-3-2.3-4.2"/><path class="uuid-705c6a8f-bea1-4916-8a46-d8b782cb82eb" d="M37.1,13.6c-.7,2.3-1.3,5-1.6,8.1-.5,4.4-.4,8.3,0,11.4"/></svg>