<?xml version="1.0" encoding="UTF-8"?><svg id="uuid-24b144de-646f-44bf-a32e-d5db19564ea2" xmlns="http://www.w3.org/2000/svg" viewBox="0 0 50 50"><defs><style>.uuid-4be18ffc-029c-40e5-8523-7f6a53f0a83a,.uuid-1c9119ac-8d2c-4fc1-ad8e-bbb8975943fc{stroke-linejoin:round;}.uuid-4be18ffc-029c-40e5-8523-7f6a53f0a83a,.uuid-1c9119ac-8d2c-4fc1-ad8e-bbb8975943fc,.uuid-fdb460c2-5547-411b-9711-9fc47aae4143{fill:none;stroke:#262626;}.uuid-1c9119ac-8d2c-4fc1-ad8e-bbb8975943fc{stroke-linecap:round;}.uuid-fdb460c2-5547-411b-9711-9fc47aae4143{stroke-miterlimit:10;}</style></defs><path class="uuid-4be18ffc-029c-40e5-8523-7f6a53f0a83a" d="M28.2,25.5c1.8-.6,3.4-.7,4.8-.7,1.6,0,3.5,.2,5.5,1,.3,.1,.6,.3,.9,.4h0c.5-.7,1.1-1.4,1.9-2.2,.9-.9,1.7-1.6,2.5-2.1,.3,.4,2.5,2.5,2.3,5.7-.1,1.5-.7,2.6-1.1,3.4,1,1.6,3.2,5,2,8.5-.9,2.5-3,3.8-4.5,4.7-3.7,2.2-7.5,2.1-9.4,1.9h0c-1.9,.2-5.7,.3-9.4-1.9-1.5-.9-3.6-2.1-4.5-4.7-1.2-3.4,.8-6.7,1.8-8.4"/><path class="uuid-4be18ffc-029c-40e5-8523-7f6a53f0a83a" d="M16.8,30.9c.3,.1,5.1,1.5,8.8-1.7,1.8-1.6,3.3-4.2,3-6.8-.2-2.2-1.5-2.4-2.1-5.4-.7-3,.4-3.5-.3-5.9-1-3.5-4-5.3-4.4-5.6-2-1.2-4-1.3-4.9-1.3-1,0-2.9,.2-4.9,1.3-.4,.2-3.4,2.1-4.4,5.6-.7,2.5,.4,3-.3,5.9-.7,3-1.9,3.2-2.1,5.4-.2,2.6,1.2,5.2,3,6.8,3.6,3.2,8.4,1.8,8.6,1.7h0Z"/><circle class="uuid-fdb460c2-5547-411b-9711-9fc47aae4143" cx="13.5" cy="16.5" r=".9"/><circle class="uuid-fdb460c2-5547-411b-9711-9fc47aae4143" cx="20.5" cy="16.5" r=".9"/><circle class="uuid-fdb460c2-5547-411b-9711-9fc47aae4143" cx="29.5" cy="34.5" r=".9"/><circle class="uuid-fdb460c2-5547-411b-9711-9fc47aae4143" cx="36.5" cy="34.5" r=".9"/><path class="uuid-4be18ffc-029c-40e5-8523-7f6a53f0a83a" d="M11.6,5.7c-1-1.5-2-1.8-2.6-2-3.2-.6-7.5,4.3-6.8,8.1,.1,.4,.4,2.2,2,3.1,1.4,.8,2.9,.3,3.3,.2"/><path class="uuid-4be18ffc-029c-40e5-8523-7f6a53f0a83a" d="M22.1,5.7c1-1.5,2-1.8,2.5-2,3.2-.6,7.5,4.3,6.9,8.1-.1,.4-.4,2.2-2,3.1-1.4,.8-2.9,.3-3.3,.2"/><path class="uuid-4be18ffc-029c-40e5-8523-7f6a53f0a83a" d="M16.8,24.7c1.8-.8,2.8-1.9,2.6-2.8-.1-.5-.6-.9-.7-.9-.8-.6-1.7-.4-1.8-.3-.1,0-1-.2-1.8,.3-.1,.1-.6,.4-.7,.9-.4,1,.6,2.1,2.4,2.8Z"/><line class="uuid-fdb460c2-5547-411b-9711-9fc47aae4143" x1="16.8" y1="24.7" x2="16.8" y2="30.9"/><path class="uuid-4be18ffc-029c-40e5-8523-7f6a53f0a83a" d="M33,40c1.2-.4,1.9-1.1,1.8-1.7,0-.3-.3-.5-.5-.7-.5-.4-1-.5-1.2-.5s-.8,.1-1.2,.5c-.2,.1-.5,.4-.5,.7-.2,.6,.5,1.3,1.6,1.7h0Z"/><path class="uuid-1c9119ac-8d2c-4fc1-ad8e-bbb8975943fc" d="M35.4,42.8c-.2-.2-.5-.7-1-1-.5-.4-1.1-.5-1.4-.5s-.8,.2-1.4,.5c-.5,.3-.8,.7-1,1"/><line class="uuid-4be18ffc-029c-40e5-8523-7f6a53f0a83a" x1="33" y1="40" x2="33" y2="41.2"/></svg>