<?xml version="1.0" encoding="UTF-8"?>
<svg id="uuid-6f20d64c-05d2-4444-aeb2-5abd64214aef" xmlns="http://www.w3.org/2000/svg" viewBox="0 0 50 50">
  <defs>
    <style>
      .uuid-9ffa6af7-725d-4062-bcd5-2c13594bb0b1 {
        stroke-linecap:round;
      }
      .uuid-9ffa6af7-725d-4062-bcd5-2c13594bb0b1,
      .uuid-822c911b-7118-4526-a8f8-3a2f683e41ea {
        fill:none;stroke:#fff;
      }
    </style>
  </defs>
  <circle class="uuid-822c911b-7118-4526-a8f8-3a2f683e41ea" cx="39.6" cy="17.3" r="4.8"/>
  <path class="uuid-9ffa6af7-725d-4062-bcd5-2c13594bb0b1" d="M32.7,26.6l1-.8c.9-.7,1.1-2.1,.5-3.1l-10-14.7c-.7-1-1.9-1.3-2.9-.7l-12,6.3c-.4,.2-.7,.5-.9,.8-.4,.7-.4,1.6,0,2.4,.6,1.1,1.9,1.6,3.1,1.2l8.4-4c1-.5,2.2-.2,2.9,.8l.8,1.3c.7,1.1,.4,2.5-.7,3.2l-10.6,6.7"/>
  <path class="uuid-9ffa6af7-725d-4062-bcd5-2c13594bb0b1" d="M47.2,31.2c-3,0-5-1.7-5.5-2.1-.5,.4-2.5,2.1-5.6,2.1s-5-1.7-5.5-2.1c-.5,.4-2.5,2.1-5.6,2.1s-5-1.7-5.5-2.1c-.5,.4-2.5,2.1-5.6,2.1s-5-1.7-5.5-2.1c-.4,.4-2.4,2.1-5.5,2.1"/>
  <path class="uuid-9ffa6af7-725d-4062-bcd5-2c13594bb0b1" d="M47.2,37.1c-3,0-5-1.7-5.5-2.1-.5,.4-2.5,2.1-5.6,2.1s-5-1.7-5.5-2.1c-.5,.4-2.5,2.1-5.6,2.1s-5-1.7-5.5-2.1c-.5,.4-2.5,2.1-5.6,2.1s-5-1.7-5.5-2.1c-.4,.4-2.4,2.1-5.5,2.1"/>
  <path class="uuid-9ffa6af7-725d-4062-bcd5-2c13594bb0b1" d="M47.2,43.1c-3,0-5-1.7-5.5-2.1-.5,.4-2.5,2.1-5.6,2.1s-5-1.7-5.5-2.1c-.5,.4-2.5,2.1-5.6,2.1s-5-1.7-5.5-2.1c-.5,.4-2.5,2.1-5.6,2.1s-5-1.7-5.5-2.1c-.4,.4-2.4,2.1-5.5,2.1"/>
</svg>