<svg width="55" height="12" viewBox="0 0 55 12" fill="none" xmlns="http://www.w3.org/2000/svg">
  <g clip-path="url(#clip0_5_474)">
    <path d="M0 0.108124V11.9129H1.68511V11.8979V0.150176V0.108124H0Z" fill="black"/>
    <path d="M7.95084 2.20475C7.9208 2.11164 7.88475 2.02152 7.84871 1.93442C7.83369 1.90137 7.81867 1.86833 7.80666 1.83529L7.80966 1.80225C7.75624 1.68611 7.69502 1.57371 7.62643 1.46583C7.55924 1.35312 7.485 1.24477 7.40415 1.14142C7.32017 1.03594 7.2299 0.935636 7.13381 0.841049C6.60388 0.324914 5.89104 0.0397755 5.15134 0.0480576H2.60115V0.901124H5.21742C5.53882 0.901124 5.96535 1.28861 6.17261 1.64906C6.46923 2.31084 6.62668 3.02652 6.63519 3.75169C6.65924 4.43468 6.49506 5.11115 6.1606 5.70713C6.00741 5.96245 5.72205 6.43404 5.23244 6.43404H2.59814V6.53617V7.16395V7.26908H5.13632C5.37015 7.26371 5.60233 7.22838 5.82718 7.16395C6.30202 7.04732 6.7393 6.81162 7.09777 6.4791C7.28711 6.29494 7.4517 6.08694 7.58738 5.86032C7.72907 5.63516 7.84399 5.39423 7.92981 5.14243C8.0966 4.68825 8.18299 4.20848 8.18513 3.72465C8.19204 3.20655 8.11287 2.6909 7.95084 2.19875" fill="black"/>
    <path d="M44.9331 0.108124V10.9036V11.8979V11.9129H46.6182V11.8979V10.9036V10.7985H46.6092V0.108124H44.9331Z" fill="black"/>
    <path d="M53.7671 3.69162C53.5467 2.92955 53.1634 2.22444 52.6437 1.62504C52.1319 1.05009 51.486 0.610521 50.7633 0.34544C50.4204 0.217483 50.0634 0.130767 49.7 0.0871167C49.5078 0.061952 49.3141 0.0499091 49.1203 0.0510716H47.6184V0.789995H49.1203C50.8084 0.789995 51.7336 2.24982 51.7426 2.26784C52.4905 3.40026 52.6437 4.90814 52.6437 5.97147C52.6437 7.0348 52.4755 8.53368 51.7245 9.67811C51.7245 9.69312 50.6913 11.21 49.1323 11.21H47.6304V11.9519H49.1323C49.3268 11.9558 49.5212 11.9387 49.712 11.9009C50.0742 11.8478 50.429 11.7531 50.7693 11.6185C51.4844 11.3401 52.1228 10.8952 52.6317 10.3209C53.15 9.72371 53.5359 9.02348 53.7641 8.26634C53.9775 7.52353 54.0797 6.75323 54.0675 5.98048C54.0807 5.2069 53.9794 4.43561 53.7671 3.69162" fill="black"/>
    <path d="M10.519 0.108124V0.150176V11.8979V11.9129H12.2042V11.8979V0.150176V0.108124H10.519Z" fill="black"/>
    <path d="M16.7428 1.53191C17.0409 2.16256 17.1997 2.84997 17.2084 3.54743C17.2332 4.15968 17.0997 4.76798 16.8209 5.31364L16.7789 5.38873H18.2417V5.3617C18.2958 5.24756 18.3498 5.12741 18.4009 4.98923C18.5663 4.52975 18.6497 4.04478 18.6472 3.55644C18.655 3.067 18.5767 2.57999 18.4159 2.11764C18.3893 2.03199 18.3582 1.94778 18.3228 1.86533C18.3228 1.83529 18.2958 1.80225 18.2808 1.76921C18.2237 1.66408 18.1666 1.55294 18.0975 1.45081C18.0284 1.34868 17.9443 1.23154 17.8753 1.15044C17.7929 1.05488 17.7057 0.963642 17.6139 0.877094C17.2574 0.538691 16.8199 0.297677 16.3433 0.177219C16.1216 0.126588 15.895 0.100399 15.6675 0.0991211H13.1323V0.838045H15.7426C15.9509 0.870712 16.1491 0.950106 16.3223 1.07027C16.4955 1.19044 16.6393 1.34826 16.7428 1.53191" fill="black"/>
    <path d="M15.9259 6.12466H13.2946H13.1864H13.0813V6.2298V6.86659V6.96872H13.1864H14.9707L17.2355 11.9129H18.9506L18.9236 11.8588L16.2833 6.18774L16.2563 6.12767H16.1902H16.1361L16.034 6.12466H15.9259Z" fill="black"/>
    <path d="M29.602 3.97998H28.8631H28.761V4.08211V11.9129H29.7072V4.08211V3.97998H29.602Z" fill="black"/>
    <path d="M26.2498 0.108124L20.756 11.8618L20.7319 11.9129H22.5011L27.5895 0.844044H29.602H29.7072V0.738912V0.111128V0.108124H26.2498Z" fill="black"/>
    <path d="M34.414 7.6776V0H32.7559V7.50939C32.7526 8.62929 33.1684 9.7099 33.9216 10.5387C34.6748 11.3675 35.7108 11.8845 36.826 11.988H36.9401V10.9247L36.865 10.9036C36.1614 10.7052 35.5416 10.283 35.0994 9.70096C34.6571 9.11889 34.4165 8.40861 34.414 7.6776" fill="black"/>
    <path d="M41.9564 0H41.1123V7.6776C41.1109 8.52932 40.7854 9.34858 40.2018 9.96897C39.6183 10.5894 38.8204 10.9643 37.9704 11.0178H37.8743V12.015H37.9854C39.1044 11.9097 40.1431 11.3884 40.8962 10.5541C41.6493 9.7198 42.0619 8.63327 42.0525 7.50939V0H41.9564Z" fill="black"/>
  </g>
  <defs>
    <clipPath id="clip0_5_474">
      <rect width="54.0676" height="12" fill="white"/>
    </clipPath>
  </defs>
</svg>