<?xml version="1.0" encoding="UTF-8"?>
<svg id="uuid-556e92d0-eaf0-4397-91a4-9fa18788fcfb" xmlns="http://www.w3.org/2000/svg" viewBox="0 0 50 50">
<defs>
<style>
.uuid-d3bd4c86-100c-41aa-a4f3-9f96f2dc0678 {
  stroke-linecap:square;
}
.uuid-d3bd4c86-100c-41aa-a4f3-9f96f2dc0678,
.uuid-791fbad1-b829-4221-9c99-1a6bed01fb8f {
  stroke-miterlimit:10;
}
.uuid-d3bd4c86-100c-41aa-a4f3-9f96f2dc0678,
.uuid-791fbad1-b829-4221-9c99-1a6bed01fb8f,
.uuid-cdfd85c4-8ad3-4ac9-ad20-739b866a84a3 {
  fill:none;
  stroke:#fff;
}
.uuid-cdfd85c4-8ad3-4ac9-ad20-739b866a84a3 {
  stroke-linejoin:round;
}
</style></defs><path class="uuid-791fbad1-b829-4221-9c99-1a6bed01fb8f" d="M-.55-.38C6.69,3.68,14.41,9.37,14.04,15.67,13.58,23.55,.81,26.35,.35,34.21c-.23,3.86,2.5,9.38,15.55,16.58"/><path class="uuid-d3bd4c86-100c-41aa-a4f3-9f96f2dc0678" d="M9.41-.66c7.8,3.42,17.18,9,18.41,17.39,1.01,6.88-4.18,10.81-2.98,17.14,.91,4.8,5.52,11.07,22.91,16.49"/><path class="uuid-d3bd4c86-100c-41aa-a4f3-9f96f2dc0678" d="M41,3.52c.52-.72,1.11-1.49,1.79-2.27,.5-.58,1-1.11,1.49-1.6"/><path class="uuid-d3bd4c86-100c-41aa-a4f3-9f96f2dc0678" d="M31.52,38.71c-.49-4.33-.8-12.15,2.2-21.2,.13-.38,.26-.76,.39-1.14"/><path class="uuid-cdfd85c4-8ad3-4ac9-ad20-739b866a84a3" d="M35.25,40.97c-.44-2.55-1.37-10.03,2.73-17.91,2.93-5.64,7.09-8.88,9.31-10.37-2.08,2.73-5,7.24-6.83,13.44-2.15,7.28-1.83,13.52-1.37,17.14"/><path class="uuid-cdfd85c4-8ad3-4ac9-ad20-739b866a84a3" d="M39.09,32.66c.56-1.63,1.98-5.04,5.41-7.71,1.6-1.25,3.18-1.98,4.41-2.42-1.65,2.06-3.44,4.63-5.09,7.73-2.61,4.91-3.97,9.49-4.72,13.01"/><path class="uuid-cdfd85c4-8ad3-4ac9-ad20-739b866a84a3" d="M36.98,4.37c-.58,.48-.93,.96-2.27,3.54-1.07,2.07-1.61,3.12-1.77,3.88-.26,1.23-.63,3.02,.4,4.07,.98,.99,2.84,.93,4.07,.3,.67-.34,.9-.73,3.01-4.86,1.04-2.05,1.42-2.81,1.61-4.04,.16-1.04,.37-2.45-.49-3.33-.61-.62-1.47-.68-1.74-.7-1.33-.09-2.32,.71-2.83,1.14Z"/></svg>