<?xml version="1.0" encoding="UTF-8"?>
<svg id="uuid-237373cc-9fb7-47c0-9532-3033cf599c78" xmlns="http://www.w3.org/2000/svg" viewBox="0 0 50 50">
<defs>
<style>
.uuid-10ae433d-f163-4c58-8cca-55b70d552774{fill:none;stroke:#262626;stroke-miterlimit:10;}</style></defs><path class="uuid-10ae433d-f163-4c58-8cca-55b70d552774" d="M54.81,7.82c-1.32,2.15-3.68,3.43-6.18,3.35-3.68-.11-5.6-3.12-5.74-3.35-1.32,2.15-3.68,3.43-6.18,3.35-3.68-.11-5.6-3.12-5.74-3.35-1.32,2.15-3.68,3.43-6.18,3.35-3.68-.11-5.6-3.12-5.74-3.35-1.32,2.15-3.68,3.43-6.18,3.35-3.68-.11-5.6-3.12-5.74-3.35-1.32,2.15-3.68,3.43-6.18,3.35-3.68-.11-5.6-3.12-5.74-3.35"/><path class="uuid-10ae433d-f163-4c58-8cca-55b70d552774" d="M54.81,23.69c-1.32,2.15-3.68,3.43-6.18,3.35-3.68-.11-5.6-3.12-5.74-3.35-1.32,2.15-3.68,3.43-6.18,3.35-3.68-.11-5.6-3.12-5.74-3.35-1.32,2.15-3.68,3.43-6.18,3.35-3.68-.11-5.6-3.12-5.74-3.35-1.32,2.15-3.68,3.43-6.18,3.35-3.68-.11-5.6-3.12-5.74-3.35-1.32,2.15-3.68,3.43-6.18,3.35-3.68-.11-5.6-3.12-5.74-3.35"/><path class="uuid-10ae433d-f163-4c58-8cca-55b70d552774" d="M54.81,39.56c-1.32,2.15-3.68,3.43-6.18,3.35-3.68-.11-5.6-3.12-5.74-3.35-1.32,2.15-3.68,3.43-6.18,3.35-3.68-.11-5.6-3.12-5.74-3.35-1.32,2.15-3.68,3.43-6.18,3.35-3.68-.11-5.6-3.12-5.74-3.35-1.32,2.15-3.68,3.43-6.18,3.35-3.68-.11-5.6-3.12-5.74-3.35-1.32,2.15-3.68,3.43-6.18,3.35-3.68-.11-5.6-3.12-5.74-3.35"/></svg>